<svg width="388" height="154" viewBox="0 0 388 154" fill="none" xmlns="http://www.w3.org/2000/svg">
<path fill-rule="evenodd" clip-rule="evenodd" d="M66.9899 153.788L67.1075 153.721L67.2255 153.788L100.595 134.703L134.215 115.485V38.6L119.098 47.2432L110.274 52.7599L90.9965 63.9023V81.4895L119.098 65.3227V93.31L119.096 93.3108L118.868 106.542L67.1075 136.136L15.3477 106.542L15.1186 93.3108L15.1179 93.31V47.2432L15.2348 47.1765L15.3477 47.2432L67.1075 17.6514L103.603 38.5164L119.098 29.6577L67.2226 0L67.1075 0.0659811L66.9928 0L0 38.3013V115.485L33.6203 134.703L66.9899 153.788Z" fill="#FFFFFF"/>
<path fill-rule="evenodd" clip-rule="evenodd" d="M27.3907 54.9241L43.7247 64.6145V90.0573L67.1071 103.901L90.4902 90.0573V85.5324L106.824 75.8606V100.063L67.1071 123.579L27.3907 100.063V54.9241Z" fill="#AFAFAF"/>
<path fill-rule="evenodd" clip-rule="evenodd" d="M219.017 115.341H200.282L170.919 37.5683H191.955L209.923 92.7123H210.362L228.22 37.5683H248.928L219.017 115.341ZM320.307 110.618C316.509 112.595 312.071 114.206 306.995 115.451C301.918 116.696 296.386 117.318 290.396 117.318C284.187 117.318 278.472 116.33 273.249 114.352C268.027 112.375 263.535 109.592 259.773 106.004C256.011 102.416 253.071 98.1132 250.953 93.0967C248.835 88.0803 247.776 82.4964 247.776 76.3448C247.776 70.1201 248.853 64.4812 251.008 59.4282C253.163 54.3751 256.139 50.0728 259.937 46.521C263.736 42.9692 268.191 40.2413 273.304 38.3373C278.417 36.4332 283.932 35.4812 289.848 35.4812C295.984 35.4812 301.681 36.4149 306.94 38.2823C312.199 40.1498 316.472 42.658 319.759 45.807L307.926 59.3183C306.1 57.1946 303.69 55.4553 300.695 54.1005C297.7 52.7457 294.304 52.0683 290.506 52.0683C287.219 52.0683 284.187 52.6725 281.412 53.8808C278.636 55.0892 276.226 56.7735 274.181 58.9339C272.135 61.0942 270.547 63.6573 269.415 66.6232C268.282 69.5892 267.716 72.8297 267.716 76.3448C267.716 79.9332 268.228 83.2287 269.25 86.2312C270.273 89.2337 271.789 91.8151 273.797 93.9755C275.806 96.1359 278.289 97.8202 281.247 99.0285C284.206 100.237 287.584 100.841 291.382 100.841C293.573 100.841 295.655 100.676 297.627 100.347C299.599 100.017 301.425 99.4862 303.105 98.7539V84.5835H288.314V69.4244H320.307V110.618ZM375.292 57.7804C373.685 55.7299 371.585 54.1005 368.992 52.8922C366.399 51.6838 363.897 51.0797 361.487 51.0797C360.245 51.0797 358.985 51.1895 357.707 51.4092C356.429 51.6289 355.278 52.05 354.256 52.6725C353.233 53.295 352.375 54.1005 351.681 55.0892C350.987 56.0778 350.64 57.341 350.64 58.8789C350.64 60.1971 350.914 61.2956 351.462 62.1744C352.01 63.0532 352.813 63.8221 353.872 64.4812C354.931 65.1403 356.191 65.7445 357.652 66.2937C359.113 66.8429 360.757 67.4105 362.583 67.9964C365.212 68.8751 367.951 69.8455 370.8 70.9073C373.649 71.9692 376.241 73.3789 378.579 75.1365C380.916 76.8941 382.852 79.0727 384.386 81.6725C385.92 84.2722 386.687 87.5127 386.687 91.3941C386.687 95.8613 385.865 99.7242 384.221 102.983C382.578 106.242 380.368 108.933 377.593 111.057C374.817 113.181 371.64 114.755 368.061 115.78C364.482 116.806 360.793 117.318 356.995 117.318C351.444 117.318 346.075 116.348 340.889 114.407C335.703 112.467 331.394 109.702 327.961 106.114L340.232 93.591C342.131 95.9345 344.633 97.8934 347.737 99.4679C350.841 101.042 353.927 101.83 356.995 101.83C358.383 101.83 359.734 101.683 361.049 101.39C362.363 101.097 363.514 100.621 364.5 99.9623C365.486 99.3032 366.271 98.4244 366.856 97.3259C367.44 96.2274 367.732 94.9092 367.732 93.3713C367.732 91.9067 367.367 90.6618 366.636 89.6365C365.906 88.6112 364.865 87.6775 363.514 86.8354C362.163 85.9932 360.483 85.2243 358.474 84.5285C356.465 83.8328 354.183 83.0822 351.626 82.2766C349.143 81.4711 346.714 80.5191 344.34 79.4206C341.966 78.3221 339.848 76.9124 337.986 75.1914C336.123 73.4705 334.626 71.3834 333.494 68.9301C332.361 66.4768 331.795 63.4926 331.795 59.9774C331.795 55.6567 332.672 51.9585 334.425 48.8827C336.178 45.8069 338.479 43.2805 341.327 41.3032C344.176 39.3259 347.39 37.8796 350.969 36.9642C354.548 36.0487 358.164 35.591 361.816 35.591C366.198 35.591 370.672 36.3966 375.237 38.0077C379.802 39.6188 383.801 41.9989 387.234 45.1479L375.292 57.7804Z" fill="#FFFFFF"/>
</svg>
